<?xml version="1.0" encoding="UTF-8"?>
<svg xmlns="http://www.w3.org/2000/svg" viewBox="0 0 981 441.36">
  <defs>
    <style>
      .cls-1 {
        fill: #fff;
      }

      .cls-2 {
        fill: none;
      }

      .cls-3 {
        fill: #f2f2f2;
      }
    </style>
  </defs>
  <g id="Capa_1" data-name="Capa 1">
    <rect class="cls-3" x="0" y="0" width="981" height="441.36" rx="39.25" ry="39.25"/>
    <rect class="cls-1" x="12.24" y=".12" width="925.04" height="416.18" rx="39.25" ry="39.25"/>
  </g>
  <g id="Capa_3" data-name="Capa 3">
    <g>
      <rect class="cls-2" x="66.45" y="164.5" width="872.58" height="209.84"/>
      <path d="M205.87,170.98c2.12.33,4.22.57,6.3.73,2.08.16,4.18.24,6.3.24,2.37,0,4.69-.1,6.98-.31,2.28-.2,4.57-.43,6.85-.67l-.25.98c-.82.08-1.73.25-2.75.49-1.02.24-2.06.61-3.12,1.1-1.06.49-2.08,1.14-3.06,1.96-.98.82-1.88,1.84-2.69,3.06-3.92,6.04-7.98,12.69-12.18,19.95-4.2,7.26-8.37,14.67-12.49,22.22-4.12,7.55-8.14,14.98-12.06,22.28-3.92,7.3-7.59,14.02-11.02,20.14h-3.92c-.16-.81-.53-2.61-1.1-5.39-.57-2.77-1.29-6.16-2.14-10.16-.86-4-1.82-8.43-2.88-13.28-1.06-4.85-2.14-9.77-3.24-14.75-1.1-4.98-2.2-9.87-3.31-14.69-1.1-4.81-2.1-9.14-3-12.98l-.12.25c-3.43,5.71-6.88,11.67-10.34,17.87-3.47,6.2-6.88,12.41-10.22,18.61-3.35,6.2-6.61,12.24-9.79,18.12s-6.16,11.34-8.94,16.4h-3.79c-.16-.81-.53-2.59-1.1-5.32-.57-2.73-1.29-6.08-2.14-10.04-.86-3.96-1.82-8.34-2.88-13.16-1.06-4.81-2.16-9.71-3.31-14.69-1.14-4.98-2.25-9.85-3.3-14.63-1.06-4.77-2.04-9.1-2.94-12.98-.9-3.88-1.65-7.12-2.26-9.73-.61-2.61-1.04-4.2-1.29-4.77-1.31-3.43-3.47-5.39-6.49-5.88l.12-.98c1.79.41,3.75.67,5.88.8,2.12.12,4.24.18,6.36.18s4.45-.06,6.98-.18c2.53-.12,4.9-.39,7.1-.8l-.12.98c-.82.08-1.69.29-2.63.61-.94.33-1.8.76-2.57,1.29-.78.53-1.43,1.14-1.96,1.84-.53.69-.76,1.41-.67,2.14.08.57.45,2.67,1.1,6.3.65,3.63,1.47,8.06,2.45,13.28.98,5.22,2.06,10.81,3.24,16.77,1.18,5.96,2.26,11.55,3.24,16.77.98,5.22,1.81,9.65,2.51,13.28.69,3.63,1.08,5.73,1.16,6.3.65-1.06,1.77-2.96,3.37-5.69,1.59-2.73,3.45-5.96,5.57-9.67,2.12-3.71,4.41-7.75,6.85-12.12,2.45-4.36,4.9-8.71,7.34-13.04,2.45-4.32,4.73-8.51,6.85-12.55,2.12-4.04,3.96-7.53,5.51-10.47-1.14-4.98-1.92-8.04-2.33-9.18-.65-1.79-1.53-3.16-2.63-4.1-1.1-.94-2.39-1.53-3.86-1.77l.24-.98c1.79.41,3.75.67,5.88.8,2.12.12,4.24.18,6.37.18s4.43-.06,6.92-.18c2.49-.12,4.88-.39,7.16-.8l-.12.98c-.82.08-1.69.29-2.63.61-.94.33-1.82.76-2.63,1.29-.82.53-1.47,1.14-1.96,1.84-.49.69-.73,1.41-.73,2.14.08.57.47,2.67,1.16,6.3.69,3.63,1.53,8.06,2.51,13.28.98,5.22,2.04,10.81,3.18,16.77,1.14,5.96,2.22,11.55,3.24,16.77,1.02,5.22,1.88,9.65,2.57,13.28.69,3.63,1.08,5.73,1.16,6.3.81-1.3,2.3-3.83,4.47-7.59,2.16-3.75,4.65-8.1,7.47-13.04,2.82-4.94,5.75-10.18,8.81-15.73,3.06-5.55,5.92-10.77,8.57-15.67,2.65-4.9,4.9-9.14,6.73-12.73,1.84-3.59,2.92-5.92,3.24-6.98.24-.9.1-1.73-.43-2.51-.53-.77-1.29-1.45-2.26-2.02-.98-.57-2.06-1.06-3.24-1.47-1.18-.41-2.22-.69-3.12-.86l.24-.98Z"/>
      <path d="M266.34,258.38c-3.18,1.88-6.77,3.35-10.77,4.41-4,1.06-8,1.59-12,1.59-5.22,0-9.87-.88-13.95-2.63-4.08-1.75-7.43-4.18-10.04-7.28-2.61-3.1-4.43-6.75-5.45-10.96-1.02-4.2-1.04-8.75-.06-13.65.9-4.65,2.57-9.04,5.02-13.16,2.45-4.12,5.39-7.69,8.81-10.71,3.43-3.02,7.2-5.41,11.32-7.16,4.12-1.75,8.3-2.63,12.55-2.63s8.28.96,11.63,2.88c3.35,1.92,6.02,4.55,8.02,7.9,2,3.35,3.3,7.28,3.92,11.81.61,4.53.39,9.45-.67,14.75h-52.02c-.33,4.08-.08,7.83.73,11.26.81,3.43,2.16,6.39,4.04,8.87,1.88,2.49,4.22,4.43,7.04,5.81,2.82,1.39,6.06,2.08,9.73,2.08,1.71,0,3.59-.16,5.63-.49,2.04-.33,4.08-.77,6.12-1.35,2.04-.57,4.02-1.29,5.94-2.14,1.92-.86,3.61-1.82,5.08-2.88l-.61,3.67ZM265.73,230.84c.9-4.81,1.24-9.2,1.04-13.16-.2-3.96-.94-7.34-2.2-10.16-1.27-2.82-3.02-5.02-5.26-6.61-2.25-1.59-4.92-2.39-8.02-2.39s-6.04.78-9.06,2.33c-3.02,1.55-5.77,3.69-8.26,6.43-2.49,2.73-4.67,5.96-6.55,9.67-1.88,3.71-3.26,7.77-4.16,12.18,0,.24-.08.61-.24,1.1l42.72.61Z"/>
      <path d="M296.33,170.98c1.63.16,3.31.31,5.02.43,1.71.12,3.39.18,5.02.18s3.26-.06,4.9-.18c1.63-.12,3.39-.26,5.26-.43l-.25.98c-1.06,0-2.02.25-2.88.73-.86.49-1.57,1.1-2.14,1.84-.57.73-1.04,1.53-1.41,2.39s-.63,1.65-.8,2.39l-15.67,80.54h27.79c2.37,0,4.88-.45,7.53-1.35,2.65-.9,4.88-2.45,6.67-4.65h.98l-5.39,9.3h-52.51l.12-.86c1.14,0,2.14-.22,3-.67.86-.45,1.57-1.04,2.14-1.77.57-.73,1.02-1.53,1.35-2.39.33-.86.57-1.69.73-2.51l14.81-75.77c.16-.81.25-1.65.25-2.51s-.16-1.63-.49-2.33c-.33-.69-.82-1.26-1.47-1.71-.65-.45-1.55-.67-2.69-.67l.12-.98Z"/>
      <path d="M384.83,196.2c4.65,0,8.81.88,12.49,2.63,3.67,1.76,6.71,4.16,9.12,7.22,2.41,3.06,4.06,6.65,4.96,10.77.9,4.12.9,8.55,0,13.28-.9,4.82-2.61,9.32-5.14,13.53-2.53,4.2-5.59,7.83-9.18,10.89-3.59,3.06-7.57,5.47-11.93,7.22-4.37,1.75-8.87,2.63-13.53,2.63s-8.69-.88-12.36-2.63c-3.67-1.75-6.71-4.16-9.12-7.22-2.41-3.06-4.08-6.69-5.02-10.89-.94-4.2-.96-8.71-.06-13.53.98-4.73,2.73-9.16,5.26-13.28,2.53-4.12,5.59-7.71,9.18-10.77,3.59-3.06,7.57-5.47,11.93-7.22,4.36-1.75,8.83-2.63,13.4-2.63ZM372.1,261.69c3.35,0,6.65-.77,9.92-2.33,3.26-1.55,6.24-3.71,8.94-6.49,2.69-2.77,5.04-6.1,7.04-9.98,2-3.88,3.45-8.14,4.35-12.79.9-4.65,1.1-8.89.61-12.73-.49-3.83-1.55-7.16-3.18-9.98-1.63-2.81-3.75-5-6.36-6.55-2.61-1.55-5.59-2.33-8.94-2.33s-6.65.78-9.91,2.33c-3.27,1.55-6.24,3.73-8.94,6.55-2.69,2.82-5.04,6.14-7.04,9.98-2,3.84-3.45,8.08-4.35,12.73-.9,4.65-1.1,8.92-.61,12.79.49,3.88,1.55,7.2,3.18,9.98,1.63,2.78,3.75,4.94,6.37,6.49,2.61,1.55,5.59,2.33,8.94,2.33Z"/>
      <path d="M469.65,197.42c1.88.16,3.47.31,4.77.43,1.3.12,2.9.18,4.77.18.98,0,2.3-.06,3.98-.18,1.67-.12,3-.26,3.98-.43l-.12.61c-1.39.16-2.57.53-3.55,1.1-.98.57-1.96,1.31-2.94,2.2-.57.49-1.82,2.16-3.73,5.02-1.92,2.86-4.2,6.32-6.85,10.4-2.65,4.08-5.47,8.55-8.45,13.4-2.98,4.86-5.84,9.49-8.57,13.89-2.73,4.41-5.16,8.34-7.28,11.81-2.12,3.47-3.63,5.9-4.53,7.28h-3.55l-13.83-59.24c-.24-1.22-.73-2.43-1.47-3.61-.73-1.18-1.8-1.94-3.18-2.26l.12-.61c1.71.16,3.24.29,4.59.37,1.35.08,2.96.12,4.83.12.9,0,2.12-.04,3.67-.12,1.55-.08,2.9-.2,4.04-.37l-.12.61c-2.04.16-3.26,1.22-3.67,3.18-.08.41.14,1.94.67,4.59.53,2.65,1.2,5.81,2.02,9.49.81,3.67,1.73,7.63,2.75,11.87,1.02,4.24,1.98,8.2,2.88,11.87.9,3.67,1.67,6.84,2.33,9.49.65,2.65,1.02,4.18,1.1,4.59.57-.9,1.73-2.71,3.49-5.45,1.75-2.73,3.75-5.88,6-9.43,2.24-3.55,4.63-7.3,7.16-11.26,2.53-3.96,4.83-7.65,6.92-11.08,2.08-3.43,3.83-6.34,5.26-8.75,1.43-2.41,2.18-3.86,2.26-4.35.16-.73.06-1.39-.31-1.96-.37-.57-.86-1.04-1.47-1.41-.61-.37-1.29-.67-2.02-.92-.73-.25-1.43-.41-2.08-.49l.12-.61Z"/>
      <path d="M533.31,258.38c-3.18,1.88-6.77,3.35-10.77,4.41-4,1.06-8,1.59-12,1.59-5.22,0-9.88-.88-13.96-2.63-4.08-1.75-7.43-4.18-10.04-7.28-2.61-3.1-4.43-6.75-5.45-10.96-1.02-4.2-1.04-8.75-.06-13.65.9-4.65,2.57-9.04,5.02-13.16,2.45-4.12,5.39-7.69,8.81-10.71,3.43-3.02,7.2-5.41,11.32-7.16,4.12-1.75,8.3-2.63,12.55-2.63s8.28.96,11.63,2.88c3.35,1.92,6.02,4.55,8.02,7.9,2,3.35,3.31,7.28,3.92,11.81.61,4.53.39,9.45-.67,14.75h-52.02c-.33,4.08-.08,7.83.73,11.26.81,3.43,2.16,6.39,4.04,8.87,1.88,2.49,4.22,4.43,7.04,5.81,2.82,1.39,6.06,2.08,9.73,2.08,1.71,0,3.59-.16,5.63-.49,2.04-.33,4.08-.77,6.12-1.35,2.04-.57,4.02-1.29,5.94-2.14,1.92-.86,3.61-1.82,5.08-2.88l-.61,3.67ZM532.69,230.84c.9-4.81,1.24-9.2,1.04-13.16-.2-3.96-.94-7.34-2.2-10.16-1.27-2.82-3.02-5.02-5.26-6.61-2.25-1.59-4.92-2.39-8.02-2.39s-6.04.78-9.06,2.33c-3.02,1.55-5.77,3.69-8.26,6.43-2.49,2.73-4.67,5.96-6.55,9.67-1.88,3.71-3.26,7.77-4.16,12.18,0,.24-.08.61-.24,1.1l42.72.61Z"/>
      <path d="M545.54,262.3c1.14,0,2.14-.22,3-.67.86-.45,1.57-1.04,2.14-1.77.57-.73,1.02-1.53,1.35-2.39.33-.86.57-1.69.73-2.51l14.81-75.77c.16-.81.25-1.65.25-2.51s-.17-1.63-.49-2.33c-.33-.69-.82-1.26-1.47-1.71-.65-.45-1.55-.67-2.69-.67l.12-.98h52.51l1.71,9.43h-.86c-.98-2.28-2.61-3.88-4.9-4.77-2.29-.9-4.61-1.35-6.98-1.35h-27.79l-6.98,36.35h18.12c1.63,0,3.14-.06,4.53-.18,1.39-.12,2.73-.41,4.04-.86,1.3-.45,2.53-1.12,3.67-2.02,1.14-.9,2.28-2.12,3.43-3.67h.86l-17.5,23.38h-.98c1.14-1.39,2.24-3,3.31-4.83,1.06-1.84,1.75-3.57,2.08-5.2.32-1.63,0-2.69-.98-3.18s-2.16-.73-3.55-.73h-17.63l-8.08,41.5c-.08.73-.12,1.55-.12,2.45s.14,1.71.43,2.45c.29.73.75,1.35,1.41,1.84.65.49,1.55.73,2.69.73l-.25.86c-1.71-.16-3.37-.29-4.96-.37-1.59-.08-3.2-.12-4.83-.12s-3.35.04-5.14.12c-1.8.08-3.51.2-5.14.37l.12-.86Z"/>
      <path d="M646.41,196.2c4.65,0,8.81.88,12.49,2.63,3.67,1.76,6.71,4.16,9.12,7.22,2.41,3.06,4.06,6.65,4.96,10.77.9,4.12.9,8.55,0,13.28-.9,4.82-2.61,9.32-5.14,13.53-2.53,4.2-5.59,7.83-9.18,10.89-3.59,3.06-7.57,5.47-11.93,7.22-4.37,1.75-8.88,2.63-13.53,2.63s-8.69-.88-12.36-2.63c-3.67-1.75-6.71-4.16-9.12-7.22-2.41-3.06-4.08-6.69-5.02-10.89-.94-4.2-.96-8.71-.06-13.53.98-4.73,2.73-9.16,5.26-13.28,2.53-4.12,5.59-7.71,9.18-10.77,3.59-3.06,7.57-5.47,11.93-7.22,4.36-1.75,8.83-2.63,13.4-2.63ZM633.68,261.69c3.35,0,6.65-.77,9.92-2.33,3.26-1.55,6.24-3.71,8.94-6.49,2.69-2.77,5.04-6.1,7.04-9.98,2-3.88,3.45-8.14,4.34-12.79.9-4.65,1.1-8.89.61-12.73-.49-3.83-1.55-7.16-3.18-9.98-1.63-2.81-3.75-5-6.37-6.55-2.61-1.55-5.59-2.33-8.94-2.33s-6.65.78-9.92,2.33c-3.26,1.55-6.24,3.73-8.94,6.55-2.69,2.82-5.04,6.14-7.04,9.98-2,3.84-3.45,8.08-4.35,12.73-.9,4.65-1.1,8.92-.61,12.79.49,3.88,1.55,7.2,3.18,9.98,1.63,2.78,3.75,4.94,6.37,6.49,2.61,1.55,5.59,2.33,8.94,2.33Z"/>
      <path d="M678.6,262.54c1.96,0,3.37-.57,4.22-1.71.86-1.14,1.41-2.28,1.65-3.43l9.67-49.45c.57-3.1.65-5.32.25-6.67-.41-1.35-1.43-2.02-3.06-2.02-1.39,0-2.71.53-3.98,1.59-1.27,1.06-2.59,2.86-3.98,5.39h-.86c2.94-6.77,6.85-10.16,11.75-10.16,2.28,0,4.14.59,5.57,1.77,1.43,1.18,2.26,2.84,2.51,4.96,1.79-.9,3.71-1.75,5.75-2.57,2.04-.81,4.06-1.53,6.06-2.14,2-.61,3.96-1.08,5.88-1.41,1.92-.33,3.69-.49,5.33-.49,7.34,0,12.61,2.45,15.79,7.34,3.18,4.9,3.92,11.67,2.2,20.32l-5.63,28.77c-.57,3.1-.65,5.32-.24,6.67.41,1.35,1.43,2.02,3.06,2.02,1.39,0,2.71-.53,3.98-1.59,1.26-1.06,2.59-2.86,3.98-5.39h.73c-2.78,6.77-6.65,10.16-11.63,10.16-3.02,0-5.26-1.02-6.73-3.06-1.47-2.04-1.88-4.61-1.22-7.71l6.85-35.25c2.45-13.06-1.43-19.58-11.63-19.58-7.43,0-15.06,3.06-22.89,9.18l-9.55,49.21c-.25,1.06-.12,2.2.37,3.43s1.67,1.84,3.55,1.84l-.12.61c-1.39-.08-2.82-.16-4.28-.24-1.47-.08-2.94-.12-4.41-.12-1.39,0-2.86.04-4.41.12-1.55.08-3.1.16-4.65.24l.12-.61Z"/>
      <path d="M780.44,184.08h1.59l-2.57,13.1h12l-.61,3.43h-12l-10.16,52.02c-.65,3.1-.75,5.32-.31,6.67.45,1.35,1.49,2.02,3.12,2.02,1.39,0,2.71-.53,3.98-1.59,1.26-1.06,2.59-2.86,3.98-5.39h.73c-2.78,6.77-6.65,10.16-11.63,10.16-3.02,0-5.26-1.02-6.73-3.06-1.47-2.04-1.88-4.61-1.22-7.71l10.28-53.12h-8.94l.73-3.43c2.94,0,5.71-.65,8.32-1.96,2.61-1.3,4.73-3.31,6.37-6l3.06-5.14Z"/>
      <path d="M790.6,247.24c.41,2.94,1.08,5.32,2.02,7.16.94,1.84,2.2,3.3,3.79,4.41,1.59,1.1,3.49,1.86,5.69,2.26,2.2.41,4.73.61,7.59.61,5.06,0,9.12-1.37,12.18-4.1,3.06-2.73,5.08-6.67,6.06-11.81.57-2.69.1-4.92-1.41-6.67-1.51-1.75-3.51-3.35-6-4.77-2.49-1.43-5.22-2.77-8.2-4.04-2.98-1.26-5.69-2.71-8.14-4.35-2.45-1.63-4.37-3.57-5.75-5.81-1.39-2.24-1.75-5.04-1.1-8.38.49-2.37,1.47-4.51,2.94-6.43,1.47-1.92,3.34-3.55,5.63-4.9,2.28-1.35,4.92-2.39,7.9-3.12,2.98-.73,6.18-1.1,9.61-1.1,2.86,0,5.81.35,8.87,1.04,3.06.69,5.77,1.69,8.14,3l.86,7.96h-.61c-1.63-2.94-4.08-5.28-7.34-7.04-3.27-1.75-6.82-2.63-10.65-2.63-2.04,0-4.06.33-6.06.98-2,.65-3.79,1.55-5.39,2.69-1.59,1.14-2.94,2.47-4.04,3.98-1.1,1.51-1.78,3.16-2.02,4.96-.33,2.04.35,3.79,2.02,5.26,1.67,1.47,3.83,2.86,6.49,4.16,2.65,1.31,5.51,2.67,8.57,4.1,3.06,1.43,5.79,3.1,8.2,5.02,2.41,1.92,4.24,4.2,5.51,6.85,1.26,2.65,1.45,5.9.55,9.73-.57,2.53-1.71,4.9-3.43,7.1s-3.82,4.12-6.3,5.75c-2.49,1.63-5.33,2.92-8.51,3.86s-6.53,1.41-10.04,1.41c-4.57,0-8.55-.47-11.93-1.41-3.39-.94-5.9-2.22-7.53-3.86l.98-11.87h.86Z"/>
    </g>
  </g>
</svg>